<svg width="29" height="29" viewBox="0 0 29 29" fill="none" xmlns="http://www.w3.org/2000/svg">
<path fill-rule="evenodd" clip-rule="evenodd" d="M14.4974 26.5846C8.80125 26.5846 5.95319 26.5846 4.18363 24.815C2.41406 23.0456 2.41406 20.1974 2.41406 14.5013C2.41406 8.80516 2.41406 5.95709 4.18363 4.18754C5.95319 2.41797 8.80125 2.41797 14.4974 2.41797C20.1935 2.41797 23.0416 2.41797 24.8111 4.18754C26.5807 5.95709 26.5807 8.80516 26.5807 14.5013C26.5807 20.1974 26.5807 23.0456 24.8111 24.815C23.0416 26.5846 20.1935 26.5846 14.4974 26.5846ZM14.4974 9.97005C14.9979 9.97005 15.4036 10.3758 15.4036 10.8763V13.5951H18.1224C18.6229 13.5951 19.0286 14.0008 19.0286 14.5013C19.0286 15.0018 18.6229 15.4076 18.1224 15.4076H15.4036V18.1263C15.4036 18.6268 14.9979 19.0326 14.4974 19.0326C13.9969 19.0326 13.5911 18.6268 13.5911 18.1263V15.4076H10.8724C10.3719 15.4076 9.96615 15.0018 9.96615 14.5013C9.96615 14.0008 10.3719 13.5951 10.8724 13.5951H13.5911V10.8763C13.5911 10.3758 13.9969 9.97005 14.4974 9.97005Z" fill="#BC002D"/>
</svg>
