<svg width="36" height="36" viewBox="0 0 36 36" fill="none" xmlns="http://www.w3.org/2000/svg">
<path fill-rule="evenodd" clip-rule="evenodd" d="M18 36C14.44 36 10.9598 34.9443 7.99975 32.9665C5.03966 30.9886 2.73257 28.1774 1.3702 24.8883C0.00781775 21.5992 -0.348667 17.98 0.345867 14.4884C1.0404 10.9967 2.75475 7.78944 5.2721 5.27209C7.78944 2.75475 10.9967 1.04041 14.4884 0.345876C17.98 -0.348658 21.5993 0.00779071 24.8883 1.37017C28.1774 2.73255 30.9886 5.03965 32.9665 7.99974C34.9443 10.9598 36 14.4399 36 18C36 22.7739 34.1036 27.3523 30.7279 30.7279C27.3523 34.1036 22.7739 36 18 36ZM7.8084 22.059C7.42133 21.6677 7.20423 21.1394 7.20423 20.589C7.20423 20.0386 7.42133 19.5103 7.8084 19.119L8.86804 18.0654C9.04823 17.8836 9.2631 17.7398 9.49993 17.6426C9.73676 17.5454 9.99073 17.4968 10.2467 17.4997C10.5027 17.5025 10.7555 17.5568 10.9901 17.6592C11.2247 17.7617 11.4363 17.9102 11.6124 18.096L13.4844 20.0382C13.5737 20.1324 13.6812 20.2074 13.8004 20.2586C13.9196 20.3099 14.048 20.3363 14.1777 20.3363C14.3075 20.3363 14.4359 20.3099 14.5551 20.2586C14.6743 20.2074 14.7817 20.1324 14.871 20.0382L24.411 10.2042C24.5884 10.0171 24.8018 9.86777 25.0383 9.76524C25.2749 9.66271 25.5297 9.60908 25.7876 9.60757C26.0454 9.60606 26.3008 9.65669 26.5386 9.75643C26.7763 9.85618 26.9914 10.003 27.171 10.188L28.2 11.2284C28.5776 11.6181 28.7888 12.1395 28.7888 12.6822C28.7888 13.2249 28.5776 13.7463 28.2 14.136L15.5346 27.0066C15.3579 27.1896 15.1464 27.3354 14.9125 27.4355C14.6787 27.5357 14.4272 27.5881 14.1728 27.5898C13.9184 27.5915 13.6662 27.5424 13.4311 27.4453C13.1959 27.3482 12.9826 27.2052 12.8034 27.0246L7.8084 22.059Z" fill="#699F4C"/>
</svg>
