<svg width="25" height="24" viewBox="0 0 25 24" fill="none" xmlns="http://www.w3.org/2000/svg">
<path d="M15.74 2H11.8458C10.0816 1.99999 8.68418 1.99997 7.59054 2.1476C6.46501 2.29953 5.55402 2.61964 4.83559 3.34096C4.11717 4.06227 3.79833 4.97692 3.64701 6.10697C3.49997 7.205 3.49999 8.60802 3.5 10.3793V16.2169C3.5 17.725 4.41995 19.0174 5.72717 19.5592C5.65989 18.6498 5.65994 17.3737 5.66 16.312V11.3976V11.3024C5.65993 10.0207 5.65986 8.91644 5.77828 8.03211C5.90519 7.08438 6.19139 6.17592 6.9253 5.43906C7.65921 4.70219 8.56404 4.41485 9.50798 4.28743C10.3888 4.16854 11.4887 4.1686 12.7652 4.16867L12.86 4.16868H15.74L15.8348 4.16867C17.1113 4.1686 18.2088 4.16854 19.0896 4.28743C18.5627 2.94779 17.2616 2 15.74 2Z" fill="white"/>
<path d="M7.10059 11.3984C7.10059 8.67216 7.10059 7.30907 7.94412 6.46215C8.78765 5.61523 10.1453 5.61523 12.8606 5.61523H15.7406C18.4559 5.61523 19.8135 5.61523 20.6571 6.46215C21.5006 7.30907 21.5006 8.67217 21.5006 11.3984V16.2177C21.5006 18.9439 21.5006 20.307 20.6571 21.1539C19.8135 22.0008 18.4559 22.0008 15.7406 22.0008H12.8606C10.1453 22.0008 8.78765 22.0008 7.94412 21.1539C7.10059 20.307 7.10059 18.9439 7.10059 16.2177V11.3984Z" fill="#CECECE"/>
</svg>
