<svg width="22" height="21" viewBox="0 0 22 21" fill="none" xmlns="http://www.w3.org/2000/svg">
<path fill-rule="evenodd" clip-rule="evenodd" d="M0.582031 10.5002C0.582031 5.58969 0.582031 3.13446 2.10752 1.60899C3.633 0.083496 6.08823 0.0834961 10.9987 0.0834961C15.9091 0.0834961 18.3644 0.083496 19.8898 1.60899C21.4154 3.13446 21.4154 5.58969 21.4154 10.5002C21.4154 15.4106 21.4154 17.8659 19.8898 19.3913C18.3644 20.9168 15.9091 20.9168 10.9987 20.9168C6.08823 20.9168 3.633 20.9168 2.10752 19.3913C0.582031 17.8659 0.582031 15.4106 0.582031 10.5002ZM10.9987 4.51058C11.4302 4.51058 11.7799 4.86036 11.7799 5.29183V10.6974L13.5713 8.9061C13.8764 8.601 14.371 8.601 14.6761 8.9061C14.9812 9.2112 14.9812 9.70579 14.6761 10.0109L11.5511 13.1359C11.4046 13.2825 11.2059 13.3647 10.9987 13.3647C10.7915 13.3647 10.5928 13.2825 10.4463 13.1359L7.32127 10.0109C7.01618 9.70579 7.01618 9.2112 7.32127 8.9061C7.62637 8.601 8.12103 8.601 8.42613 8.9061L10.2174 10.6974V5.29183C10.2174 4.86036 10.5672 4.51058 10.9987 4.51058ZM6.83203 14.9272C6.40056 14.9272 6.05078 15.277 6.05078 15.7085C6.05078 16.14 6.40056 16.4897 6.83203 16.4897H15.1654C15.5968 16.4897 15.9466 16.14 15.9466 15.7085C15.9466 15.277 15.5968 14.9272 15.1654 14.9272H6.83203Z" fill="#034EA2"/>
</svg>
