<svg width="28" height="29" viewBox="0 0 28 29" fill="none" xmlns="http://www.w3.org/2000/svg">
<path d="M7.65039 11.3813L16.7856 20.5165L23.7132 13.5888C24.9837 12.3183 24.9849 10.2596 23.7161 8.99081L19.1761 4.45081C18.9419 4.21664 18.6807 4.02564 18.4026 3.87797C17.1741 3.22567 15.6141 3.41774 14.5782 4.45364L7.65039 11.3813Z" fill="#CECECE"/>
<path d="M15.0175 22.2834L5.88252 13.1484L3.95369 15.0773C2.68322 16.3478 2.68194 18.4063 3.95085 19.6753L8.49069 24.2151C9.05269 24.7771 9.76952 25.0899 10.504 25.1538L10.5 25.1659H19.669C20.3594 25.1659 20.919 24.6063 20.919 23.9159C20.919 23.2256 20.3594 22.6659 19.669 22.6659H14.635L15.0175 22.2834Z" fill="white"/>
</svg>
