<svg width="23" height="23" viewBox="0 0 23 23" fill="none" xmlns="http://www.w3.org/2000/svg">
<path d="M19.1654 3.83301L11.4987 11.4997M19.1654 3.83301V8.14551M19.1654 3.83301H14.8529M18.207 11.9788V16.0997C18.207 17.1731 18.207 17.7099 17.9981 18.1198C17.8144 18.4805 17.5212 18.7737 17.1605 18.9574C16.7506 19.1663 16.2138 19.1663 15.1404 19.1663H6.8987C5.82527 19.1663 5.28854 19.1663 4.87855 18.9574C4.5179 18.7737 4.22469 18.4805 4.04094 18.1198C3.83203 17.7099 3.83203 17.1731 3.83203 16.0997V7.85801C3.83203 6.78458 3.83203 6.24786 4.04094 5.83786C4.22469 5.47721 4.5179 5.184 4.87855 5.00025C5.28854 4.79134 5.82526 4.79134 6.8987 4.79134H11.0195" stroke="#BC002D" stroke-width="2" stroke-linecap="round" stroke-linejoin="round"/>
</svg>
