<svg width="20" height="24" viewBox="0 0 20 24" fill="none" xmlns="http://www.w3.org/2000/svg">
<path d="M8.3584 2.91699C8.63427 2.91699 8.87569 2.91746 9.09082 2.91992L9.08398 5.38184V5.38281C9.0839 6.42398 9.08309 7.3866 9.1748 8.1709C9.26858 8.97266 9.48195 9.83879 10.0615 10.5801L10.1826 10.7266C10.8629 11.509 11.6968 11.7952 12.4717 11.915C13.1692 12.0229 14.0203 12.0216 14.9209 12.0215H17.8213C17.8334 12.4241 17.834 12.9025 17.834 13.498V13.917C17.834 15.7364 17.8327 17.0574 17.7148 18.0654C17.5979 19.0651 17.3732 19.6812 16.9805 20.1328C16.5964 20.5745 16.0864 20.8196 15.248 20.9492C14.3873 21.0823 13.2544 21.084 11.667 21.084H8.33398C6.74672 21.084 5.61358 21.0822 4.75293 20.9492C3.91458 20.8196 3.4046 20.5745 3.02051 20.1328C2.62774 19.6811 2.40305 19.0652 2.28613 18.0654C2.16828 17.0574 2.16699 15.7364 2.16699 13.917V10.084C2.16699 8.2646 2.16828 6.94359 2.28613 5.93555C2.40302 4.93574 2.6278 4.31991 3.02051 3.86816C3.40419 3.42694 3.91572 3.18152 4.75879 3.05176C5.62377 2.91868 6.76293 2.91699 8.3584 2.91699Z" fill="white" stroke="#8C8C8C"/>
<path d="M9.59068 2.66552L9.58301 5.38182C9.58293 6.43321 9.58285 7.36238 9.67043 8.11134C9.76535 8.92316 9.98326 9.73486 10.5593 10.3974C11.1354 11.0598 11.8412 11.3104 12.5472 11.4195C13.1984 11.5202 14.0063 11.5201 14.9206 11.52H18.2975C18.3078 11.6692 18.3152 11.828 18.3203 11.9991H18.333C18.333 11.7428 18.333 11.6146 18.3248 11.4637C18.2776 10.6065 17.9678 9.62412 17.5259 8.93152C17.4482 8.80959 17.3949 8.7364 17.2886 8.59001C16.6282 7.68095 15.7588 6.54852 14.9997 5.76997C14.324 5.07702 13.3986 4.3189 12.5914 3.69899C11.8981 3.16639 11.5513 2.90009 11.0759 2.70217C10.9499 2.6497 10.7837 2.59174 10.6535 2.55489C10.3335 2.4643 10.022 2.43279 9.58301 2.42188L9.59068 2.66552Z" fill="#AEAEAE"/>
</svg>
