<svg width="37" height="37" viewBox="0 0 37 37" fill="none" xmlns="http://www.w3.org/2000/svg">
<path d="M10.7354 0H26.2461C32.9835 0 37 4.0145 37 10.7485V26.233C37 32.9855 32.9835 37 26.2461 37H10.7539C4.01656 37 6.48499e-05 32.9855 6.48499e-05 26.2515V10.7485C-0.0184441 4.0145 3.99805 0 10.7354 0ZM8.25518 10.2305L22.5443 24.5125H16.9545C16.1956 24.5125 15.5663 25.1415 15.5663 25.9C15.5663 26.6585 16.1956 27.2875 16.9545 27.2875H25.8945C26.6533 27.2875 27.2827 26.6585 27.2827 25.9V16.9645C27.2827 16.206 26.6533 15.577 25.8945 15.577C25.1356 15.577 24.5063 16.206 24.5063 16.9645V22.5515L10.2172 8.2695C9.93952 7.992 9.58784 7.8625 9.23617 7.8625C8.88449 7.8625 8.53282 7.992 8.25518 8.2695C7.71841 8.806 7.71841 9.694 8.25518 10.2305Z" fill="black"/>
</svg>
