<svg width="22" height="23" viewBox="0 0 22 23" fill="none" xmlns="http://www.w3.org/2000/svg">
<g clip-path="url(#clip0_175_32626)">
<path d="M10.9997 0.5C4.92534 0.5 0 5.42499 0 11.4997C0 17.5743 4.92534 22.4993 10.9997 22.4993C17.0754 22.4993 22 17.5744 22 11.4997C22 5.42495 17.0754 0.5 10.9997 0.5ZM12.9311 16.5497C12.4862 17.0435 12.2311 17.337 11.7509 17.7961C11.0239 18.4912 10.1985 18.6763 9.55677 17.9901C8.63436 17.0036 9.6018 14.0025 9.62539 13.8888C9.79864 13.0911 10.1444 11.4969 10.1444 11.4969C10.1444 11.4969 9.39735 11.9542 8.95383 12.1164C8.62671 12.236 8.25666 12.079 8.16518 11.7626C8.07993 11.4695 8.14782 11.2831 8.32734 11.0828C8.77224 10.5893 9.02726 10.2958 9.50757 9.83672C10.2352 9.14127 11.0599 8.95659 11.7017 9.64233C12.6241 10.6289 11.9435 12.2519 11.7044 13.402C11.6809 13.516 11.114 16.1359 11.114 16.1359C11.114 16.1359 11.8611 15.6785 12.3046 15.516C12.6323 15.3968 13.0024 15.5541 13.0939 15.8702C13.1792 16.1634 13.1106 16.3498 12.9311 16.5497ZM11.7377 8.06744C10.7114 8.1575 9.80697 7.39868 9.71687 6.37159C9.62749 5.34559 10.3863 4.44084 11.4127 4.35146C12.4384 4.26136 13.3435 5.02091 13.4329 6.04692C13.523 7.07297 12.7634 7.97807 11.7377 8.06744Z" fill="#B2FFD2"/>
</g>
<defs>
<clipPath id="clip0_175_32626">
<rect width="22" height="22" fill="white" transform="translate(0 0.5)"/>
</clipPath>
</defs>
</svg>
