<svg width="30" height="31" viewBox="0 0 30 31" fill="none" xmlns="http://www.w3.org/2000/svg">
<path fill-rule="evenodd" clip-rule="evenodd" d="M21.299 19.7463C22.8392 17.8208 23.7602 15.3784 23.7602 12.7209C23.7602 6.50491 18.7211 1.46582 12.5051 1.46582C6.28909 1.46582 1.25 6.50491 1.25 12.7209C1.25 18.9369 6.28909 23.9761 12.5051 23.9761C15.1626 23.9761 17.605 23.0551 19.5305 21.5148L26.6151 28.5996C27.1035 29.0879 27.8954 29.0879 28.3837 28.5996C28.8721 28.1112 28.8721 27.3193 28.3837 26.8309L21.299 19.7463ZM12.5051 21.4874C7.6635 21.4874 3.73859 17.5626 3.73859 12.7209C3.73859 7.87932 7.6635 3.95441 12.5051 3.95441C17.3467 3.95441 21.2716 7.87932 21.2716 12.7209C21.2716 17.5626 17.3467 21.4874 12.5051 21.4874Z" fill="#0F0F0F"/>
</svg>
