<svg width="29" height="30" viewBox="0 0 29 30" fill="none" xmlns="http://www.w3.org/2000/svg">
<path d="M12.0837 22.2493C17.4224 22.2493 21.7503 17.9214 21.7503 12.5827C21.7503 7.24393 17.4224 2.91602 12.0837 2.91602C6.74491 2.91602 2.41699 7.24393 2.41699 12.5827C2.41699 17.9214 6.74491 22.2493 12.0837 22.2493Z" fill="white"/>
<path d="M26.2331 26.7322C26.1208 26.8454 25.9872 26.9353 25.8399 26.9967C25.6927 27.058 25.5347 27.0896 25.3752 27.0896C25.2157 27.0896 25.0578 27.058 24.9105 26.9967C24.7633 26.9353 24.6296 26.8454 24.5173 26.7322L18.8623 21.0409C19.484 20.5465 20.0475 19.9831 20.5419 19.3613L26.1969 25.0163C26.3125 25.1262 26.4053 25.258 26.4698 25.4039C26.5342 25.5499 26.5692 25.7072 26.5726 25.8667C26.5759 26.0262 26.5477 26.1848 26.4894 26.3334C26.4312 26.4819 26.3441 26.6175 26.2331 26.7322Z" fill="white"/>
</svg>
