<svg width="41" height="38" viewBox="0 0 41 38" fill="none" xmlns="http://www.w3.org/2000/svg">
<path d="M40.6938 0.638622C40.5158 0.482448 40.2624 0.446215 40.0476 0.545826L1.24345 18.5754C1.03454 18.6725 0.900008 18.8809 0.897497 19.1112C0.894985 19.3415 1.02509 19.5528 1.23197 19.6543L12.2135 25.0436C12.4149 25.1425 12.655 25.1202 12.8348 24.9858L23.5119 17.0056L15.13 25.6274C15.0104 25.7505 14.9494 25.919 14.9625 26.09L15.7971 36.9586C15.8156 37.1995 15.9771 37.4054 16.2066 37.4808C16.2679 37.5009 16.3309 37.5107 16.3932 37.5107C16.5641 37.5107 16.7303 37.4374 16.846 37.3035L22.6746 30.5493L29.88 33.992C30.0364 34.0668 30.2174 34.0699 30.3764 34.0008C30.5353 33.9315 30.6563 33.7969 30.7082 33.6316L40.87 1.26726C40.941 1.04125 40.8718 0.794795 40.6938 0.638622Z" fill="#699F4C"/>
</svg>
