<svg width="29" height="29" viewBox="0 0 29 29" fill="none" xmlns="http://www.w3.org/2000/svg">
<path d="M2.41699 14.5003C2.41699 8.80418 2.41699 5.95612 4.18656 4.18656C5.95612 2.41699 8.80418 2.41699 14.5003 2.41699C20.1964 2.41699 23.0446 2.41699 24.8141 4.18656C26.5837 5.95612 26.5837 8.80418 26.5837 14.5003C26.5837 20.1964 26.5837 23.0446 24.8141 24.8141C23.0446 26.5837 20.1964 26.5837 14.5003 26.5837C8.80418 26.5837 5.95612 26.5837 4.18656 24.8141C2.41699 23.0446 2.41699 20.1964 2.41699 14.5003Z" fill="#27AE60"/>
<path d="M9.66699 9.36426C9.16649 9.36426 8.76074 8.95851 8.76074 8.45801C8.76074 7.9575 9.16649 7.55176 9.66699 7.55176H19.3337C19.8342 7.55176 20.2399 7.9575 20.2399 8.45801C20.2399 8.95851 19.8342 9.36426 19.3337 9.36426H9.66699Z" fill="white"/>
<path d="M15.4062 20.5413C15.4062 21.0418 15.0005 21.4476 14.5 21.4476C13.9995 21.4476 13.5937 21.0418 13.5937 20.5413V14.2709L11.5158 16.3488C11.1619 16.7027 10.5881 16.7027 10.2342 16.3488C9.88027 15.9949 9.88027 15.4211 10.2342 15.0672L13.8592 11.4422C14.0291 11.2722 14.2597 11.1768 14.5 11.1768C14.7403 11.1768 14.9709 11.2722 15.1408 11.4422L18.7658 15.0672C19.1197 15.4211 19.1197 15.9949 18.7658 16.3488C18.4119 16.7027 17.8381 16.7027 17.4842 16.3488L15.4062 14.2709V20.5413Z" fill="white"/>
</svg>
