<svg width="24" height="24" viewBox="0 0 24 24" fill="none" xmlns="http://www.w3.org/2000/svg">
<path d="M10.2822 5.95508C11.2615 4.38872 13.5433 4.38864 14.5225 5.95508L22.1152 18.1055C23.1558 19.7705 21.9594 21.9294 19.9961 21.9297H4.80859C2.84522 21.9296 1.64825 19.7705 2.68848 18.1055L10.2822 5.95508ZM12.4023 14.0889C12.2379 14.0889 12.0802 14.1542 11.9639 14.2705C11.8476 14.3868 11.7822 14.5445 11.7822 14.709V18.6299C11.7823 18.7942 11.8476 18.9521 11.9639 19.0684C12.0802 19.1845 12.238 19.25 12.4023 19.25C12.5667 19.25 12.7246 19.1846 12.8408 19.0684C12.957 18.9521 13.0224 18.7942 13.0225 18.6299V14.709C13.0225 14.5446 12.957 14.3868 12.8408 14.2705C12.7245 14.1542 12.5668 14.0889 12.4023 14.0889ZM12.4023 8.4873C12.1689 8.4873 11.9402 8.55683 11.7461 8.68652C11.5522 8.81615 11.4008 9.00036 11.3115 9.21582C11.2222 9.43149 11.1986 9.66948 11.2441 9.89844C11.2897 10.1273 11.4023 10.3379 11.5674 10.5029C11.7324 10.6679 11.943 10.7796 12.1719 10.8252C12.4007 10.8707 12.638 10.848 12.8535 10.7588C13.0692 10.6695 13.2541 10.5173 13.3838 10.3232C13.5133 10.1292 13.582 9.90124 13.582 9.66797C13.582 9.35493 13.4577 9.05436 13.2363 8.83301C13.0151 8.61194 12.7151 8.48734 12.4023 8.4873Z" fill="#FFEA00" stroke="black"/>
</svg>
